<svg xmlns="http://www.w3.org/2000/svg" viewBox="0 0 276.19 61"><defs><style>.cls-1{fill:#fff;}.cls-2{fill:#ffdd2e;}.cls-3{fill:#74287b;}.cls-4{fill:#231f20;}.cls-5{font-family:OpenSans-Semibold, 'Open Sans';font-size:11px;font-weight:600;}</style></defs><g id="Layer_1"><path class="cls-4" d="m91.6,23.45h0v-3.41c0-1.4.64-4.41,4.79-4.41h.25c4.15,0,4.78,3.02,4.78,4.41v3.41h-9.82Zm11.42,1.64v-5.02c0-2.76-1.81-5.79-5.15-5.79h-2.89c-3.08,0-5.15,3.03-5.15,5.79v9.17c0,2.76,2.06,5.79,5.15,5.79h2.89c3.33,0,4.93-2.7,4.93-5.61h-1.51c0,2.45-1.18,4.16-4.4,4.16h-.88c-3.23,0-4.41-2.16-4.41-5.24v-3.26h11.42Z"/><path class="cls-4" d="m81.91,6.35h0v9.49c-.87-.94-2.07-1.56-3.58-1.56h-2.89c-3.08,0-5.15,3.03-5.15,5.79v9.17c0,2.76,2.07,5.79,5.15,5.79h2.89c1.27,0,2.6-.84,3.59-2.06l.32,2.07h1.51V6.35h-1.83Zm-4.56,27.24h-.88c-3.23,0-4.41-2.16-4.41-5.24v-8.31c0-1.4.64-4.41,4.79-4.41h.25c4.15,0,4.8,3.02,4.8,4.41v3.41l.02.02v5.6h0c0,2.47-1.58,4.53-4.56,4.53Z"/><path class="cls-4" d="m126.11,35.05h5.2l-7.77-27.16h-4.89l-7.77,27.16h5.2s.78-3.02,1.24-4.81h7.55l1.24,4.81Zm-7.58-9.5c1.29-4.99,2.57-9.98,2.57-9.98l2.57,9.98h-5.14Z"/><path class="cls-4" d="m150.13,20.68c0-3.96-3.25-6.61-7.64-6.61s-8.14,1.98-8.14,6.82,4.15,5.61,6.74,5.78c2.66.18,4.38.76,4.38,2.07s-1.29,2.31-3.01,2.31-3.41-.46-3.41-2.37h-5.02v.73c0,.58.75,5.63,8.05,5.63s8.36-4.2,8.36-6.42-1.32-5.25-6.33-5.63c-2.78-.21-4.84-.21-4.84-2.56,0-1.52,1.89-2.07,2.96-2.07s3.07.43,3.07,2.31h4.82Z"/><path class="cls-4" d="m162.09,14.59c-1.02.4-1.84,1.34-2.15,1.74h-.09l-.12-2.1h-4.6v20.83h4.95v-12.82c.16-1.31,1.32-2.4,2.19-2.77,1.41-.61,3.6-.24,3.6-.24v-5.14c-.69-.15-2.47,0-3.79.52"/><path class="cls-4" d="m170.58,16.63h0c1.34-1.87,3.88-2.53,6.83-2.53,4.73,0,7.73,2.89,7.73,7.31v13.61h-4.01l-.53-2.28s-1.82,2.62-5.55,2.62-6.26-2.25-6.26-6,3.16-5.36,5.27-5.88c2.1-.52,6.36-.39,6.36-.39v-1.34c0-2.22-1.38-3.44-3.38-3.44s-2.76,1.22-2.76,1.89v1.22h-4.76c0-2.05.26-3.65,1.07-4.78m9.84,10.05s-3.45-.2-4.73.13c-1.28.34-2.17,1.14-2.17,2.42s1.64,1.74,3.3,1.74,3.6-1.49,3.6-4.29Z"/><path class="cls-3" d="m57.79,18.83c6.63,6.44,6.63,16.89,0,23.33l-14.4,14c-6.63,6.44-17.38,6.44-24.01,0l-14.41-14c-6.63-6.44-6.63-16.89,0-23.33l14.41-14c6.63-6.44,17.37-6.44,24.01,0l14.4,14Z"/><path class="cls-2" d="m35.25,20.2s.05-3.71-3.65-4.03c-3.73,0-4.01,4-4.01,4.53v8.78s.27,2.07-1.98,2.07h-5s-1.11-.14-1.11-1.02.54-1.11,1.29-1.11h3.73s.64,0,.64-1.03v-7.78s-.44-4.47,3.63-6.21c4.07-1.73,8.79.78,8.79,5.85,0,0,.18,1.46-1.08,1.46s-1.27-.7-1.27-1.52"/><path class="cls-1" d="m42,34.14s3.82.05,4.15-3.55c0-3.63-4.12-3.9-4.66-3.9h-9.03s-2.13.26-2.13-1.92v-4.86s.14-1.07,1.05-1.07,1.14.53,1.14,1.25v3.63s0,.62,1.06.62h8.01s4.6-.43,6.38,3.53c1.79,3.96-.8,8.54-6.02,8.54,0,0-1.51.18-1.51-1.05s.71-1.23,1.56-1.23"/><path class="cls-1" d="m20.91,26.68s-3.82-.05-4.14,3.55c0,3.63,4.11,3.89,4.66,3.89h9.03s2.13-.26,2.13,1.92v4.86s-.14,1.07-1.04,1.07-1.15-.53-1.15-1.25v-3.63s0-.63-1.06-.63h-8.01s-4.6.43-6.38-3.53c-1.79-3.96.8-8.55,6.02-8.55,0,0,1.51-.18,1.51,1.05s-.72,1.23-1.56,1.23"/><path class="cls-2" d="m34.64,12.57c0,1.77-1.47,3.2-3.29,3.2s-3.29-1.43-3.29-3.2,1.47-3.2,3.29-3.2,3.29,1.43,3.29,3.2"/><path class="cls-2" d="m27.57,40.78s-.05,3.71,3.65,4.03c3.73,0,4.01-4,4.01-4.53v-8.78s-.27-2.07,1.98-2.07h5s1.1.14,1.1,1.01-.54,1.11-1.29,1.11h-3.73s-.64,0-.64,1.04v7.79s.44,4.47-3.63,6.2c-4.07,1.74-8.79-.78-8.79-5.85,0,0-.18-1.46,1.08-1.46s1.26.69,1.26,1.52"/><path class="cls-2" d="m28.19,48.41c0-1.77,1.47-3.2,3.29-3.2s3.29,1.43,3.29,3.2-1.47,3.2-3.29,3.2-3.29-1.43-3.29-3.2"/><path class="cls-1" d="m49.85,33.54c-1.82,0-3.29-1.43-3.29-3.2s1.47-3.2,3.29-3.2,3.29,1.43,3.29,3.2-1.47,3.2-3.29,3.2"/><path class="cls-1" d="m13.06,27.28c1.81,0,3.29,1.43,3.29,3.2s-1.47,3.2-3.29,3.2-3.29-1.43-3.29-3.2,1.47-3.2,3.29-3.2"/></g><g id="Layer_2"><text class="cls-5" transform="translate(70.29 50.63)"><tspan x="0" y="0">Powering Businesses. Creating Jobs.</tspan></text></g></svg>